# xmcd
#
# Track frame offsets:
# 150
# 30307
# 52839
# 70728
# 97465
# 116240
# 133772
# 156616
# 181836
# 201267
# 221649
# 245311
# 268776
#
# Disc length: 3852 seconds
#
#
# Revision: 0
# Processed by: cddbd v1.5.1PL0 Copyright (c) Steve Scherf et al.
# Submitted via: FreeRIP 2.90 
#
DISCID=c50f0a0d
DTITLE=Toto - Past To Present (1977-1990)
DYEAR=1900
DGENRE=Pop
TTITLE0=Love has the power
TTITLE1=Africa
TTITLE2=Hold the line
TTITLE3=Out of love
TTITLE4=Georgy porgy
TTITLE5=I'lle be over you
TTITLE6=Can you hear waht i'm saying
TTITLE7=Rosanna
TTITLE8=I won't hold you back
TTITLE9=Stop loving you
TTITLE10=99
TTITLE11=Pamela
TTITLE12=Animal
EXTD=
EXTT0=
EXTT1=
EXTT2=
EXTT3=
EXTT4=
EXTT5=
EXTT6=
EXTT7=
EXTT8=
EXTT9=
EXTT10=
EXTT11=
EXTT12=
PLAYORDER=
